{
	"asset":{
		"generator":"Khronos glTF Blender I/O v5.0.21",
		"version":"2.0"
	},
	"extensionsUsed":[
		"KHR_materials_clearcoat",
		"KHR_materials_specular",
		"KHR_materials_anisotropy",
		"KHR_materials_ior"
	],
	"scene":0,
	"scenes":[
		{
			"name":"Scene",
			"nodes":[
				1
			]
		}
	],
	"nodes":[
		{
			"mesh":0,
			"name":"Ip16_black",
			"translation":[
				0,
				-0.07000000029802322,
				0
			]
		},
		{
			"children":[
				0
			],
			"name":"IPhone 16 Plus",
			"scale":[
				50,
				50,
				50
			]
		}
	],
	"materials":[
		{
			"doubleSided":true,
			"name":"16_Body_1_black.001",
			"pbrMetallicRoughness":{
				"baseColorFactor":[
					0.0633605420589447,
					0.0633605420589447,
					0.0633605420589447,
					1
				],
				"metallicFactor":0.9800000190734863
			}
		},
		{
			"doubleSided":true,
			"name":"16_Body_2_black.001",
			"pbrMetallicRoughness":{
				"baseColorFactor":[
					0.028918171301484108,
					0.028918171301484108,
					0.028918171301484108,
					1
				],
				"metallicFactor":0,
				"roughnessFactor":0.4000000059604645
			}
		},
		{
			"doubleSided":true,
			"name":"16_Body_3_black.001",
			"pbrMetallicRoughness":{
				"baseColorFactor":[
					0.011748796328902245,
					0.011748796328902245,
					0.011748796328902245,
					1
				],
				"metallicFactor":0,
				"roughnessFactor":0.30000001192092896
			}
		},
		{
			"doubleSided":true,
			"name":"16_Body_4_black.001",
			"pbrMetallicRoughness":{
				"baseColorFactor":[
					0.0928417518734932,
					0.0928417518734932,
					0.0928417518734932,
					1
				],
				"metallicFactor":0.9800000190734863,
				"roughnessFactor":0.33000001311302185
			}
		},
		{
			"doubleSided":true,
			"name":"16_black.001",
			"pbrMetallicRoughness":{
				"baseColorFactor":[
					0,
					0,
					0,
					1
				],
				"metallicFactor":0,
				"roughnessFactor":0.30000001192092896
			}
		},
		{
			"doubleSided":true,
			"name":"16_cam2.001",
			"pbrMetallicRoughness":{
				"baseColorFactor":[
					0.006243903189897537,
					0.008462999016046524,
					0.015459599904716015,
					1
				],
				"metallicFactor":0
			}
		},
		{
			"doubleSided":true,
			"name":"16_lens.001",
			"pbrMetallicRoughness":{
				"baseColorFactor":[
					0.0057756854221224785,
					0.007005583494901657,
					0.07957769185304642,
					1
				],
				"metallicFactor":0,
				"roughnessFactor":0
			}
		},
		{
			"doubleSided":true,
			"emissiveFactor":[
				0.10000000149011612,
				0.10000000149011612,
				0.10000000149011612
			],
			"emissiveTexture":{
				"index":0,
				"texCoord":1
			},
			"name":"16_screen.001",
			"pbrMetallicRoughness":{
				"baseColorTexture":{
					"index":1,
					"texCoord":1
				},
				"metallicFactor":0,
				"roughnessFactor":0.03181818127632141
			}
		},
		{
			"alphaMode":"BLEND",
			"doubleSided":true,
			"extensions":{
				"KHR_materials_clearcoat":{
					"clearcoatFactor":0.25
				},
				"KHR_materials_specular":{
					"specularColorFactor":[
						2.0,
						2.0,
						2.0
					]
				},
				"KHR_materials_anisotropy":{
					"anisotropyRotation":0.06283185166739451
				},
				"KHR_materials_ior":{
					"ior":1.4500000476837158
				}
			},
			"name":"16_Glass.001",
			"pbrMetallicRoughness":{
				"baseColorFactor":[
					0,
					0,
					0,
					0.30000001192092896
				],
				"metallicFactor":0,
				"roughnessFactor":0
			}
		},
		{
			"alphaMode":"BLEND",
			"doubleSided":true,
			"name":"16_wire.001",
			"normalTexture":{
				"index":2,
				"texCoord":1
			},
			"pbrMetallicRoughness":{
				"baseColorTexture":{
					"index":3,
					"texCoord":1
				},
				"metallicFactor":0,
				"metallicRoughnessTexture":{
					"index":4,
					"texCoord":1
				}
			}
		},
		{
			"doubleSided":true,
			"name":"16_1111.001",
			"pbrMetallicRoughness":{
				"baseColorFactor":[
					0.03973734751343727,
					0.03973734751343727,
					0.03973734751343727,
					1
				],
				"metallicFactor":0.800000011920929,
				"roughnessFactor":0.6000000238418579
			}
		},
		{
			"doubleSided":true,
			"name":"16_16fs.001",
			"pbrMetallicRoughness":{
				"metallicFactor":0
			}
		},
		{
			"doubleSided":true,
			"name":"16_16fs1.001",
			"pbrMetallicRoughness":{
				"metallicFactor":0
			}
		},
		{
			"doubleSided":true,
			"name":"16_g.001",
			"pbrMetallicRoughness":{
				"baseColorFactor":[
					0.5584508180618286,
					0.32640784978866577,
					0.0011457342188805342,
					1
				],
				"roughnessFactor":0.5172154307365417
			}
		}
	],
	"meshes":[
		{
			"name":"Cube.001",
			"primitives":[
				{
					"attributes":{
						"POSITION":0,
						"NORMAL":1,
						"TEXCOORD_0":2,
						"TEXCOORD_1":3
					},
					"indices":4,
					"material":0
				},
				{
					"attributes":{
						"POSITION":5,
						"NORMAL":6,
						"TEXCOORD_0":7,
						"TEXCOORD_1":8
					},
					"indices":9,
					"material":1
				},
				{
					"attributes":{
						"POSITION":10,
						"NORMAL":11,
						"TEXCOORD_0":12,
						"TEXCOORD_1":13
					},
					"indices":14,
					"material":2
				},
				{
					"attributes":{
						"POSITION":15,
						"NORMAL":16,
						"TEXCOORD_0":17,
						"TEXCOORD_1":18
					},
					"indices":19,
					"material":3
				},
				{
					"attributes":{
						"POSITION":20,
						"NORMAL":21,
						"TEXCOORD_0":22,
						"TEXCOORD_1":23
					},
					"indices":24,
					"material":4
				},
				{
					"attributes":{
						"POSITION":25,
						"NORMAL":26,
						"TEXCOORD_0":27,
						"TEXCOORD_1":28
					},
					"indices":29,
					"material":5
				},
				{
					"attributes":{
						"POSITION":30,
						"NORMAL":31,
						"TEXCOORD_0":32,
						"TEXCOORD_1":33
					},
					"indices":34,
					"material":6
				},
				{
					"attributes":{
						"POSITION":35,
						"NORMAL":36,
						"TEXCOORD_0":37,
						"TEXCOORD_1":38
					},
					"indices":39,
					"material":7
				},
				{
					"attributes":{
						"POSITION":40,
						"NORMAL":41,
						"TEXCOORD_0":42,
						"TEXCOORD_1":43
					},
					"indices":44,
					"material":8
				},
				{
					"attributes":{
						"POSITION":45,
						"NORMAL":46,
						"TEXCOORD_0":47,
						"TEXCOORD_1":48
					},
					"indices":49,
					"material":9
				},
				{
					"attributes":{
						"POSITION":50,
						"NORMAL":51,
						"TEXCOORD_0":52,
						"TEXCOORD_1":53
					},
					"indices":54,
					"material":10
				},
				{
					"attributes":{
						"POSITION":55,
						"NORMAL":56,
						"TEXCOORD_0":57,
						"TEXCOORD_1":58
					},
					"indices":59,
					"material":11
				},
				{
					"attributes":{
						"POSITION":60,
						"NORMAL":61,
						"TEXCOORD_0":62,
						"TEXCOORD_1":63
					},
					"indices":64,
					"material":12
				},
				{
					"attributes":{
						"POSITION":65,
						"NORMAL":66,
						"TEXCOORD_0":67,
						"TEXCOORD_1":68
					},
					"indices":69,
					"material":13
				}
			]
		}
	],
	"textures":[
		{
			"sampler":0,
			"source":0
		},
		{
			"sampler":0,
			"source":0
		},
		{
			"sampler":0,
			"source":1
		},
		{
			"sampler":0,
			"source":2
		},
		{
			"sampler":0,
			"source":3
		}
	],
	"images":[
		{
			"mimeType":"image/png",
			"name":"Loading",
			"uri":"textures/Loading.png"
		},
		{
			"mimeType":"image/jpeg",
			"name":"base_Normal",
			"uri":"textures/base_Normal.jpg"
		},
		{
			"mimeType":"image/png",
			"name":"base_Roughness.jpg-base_Alpha.jpg",
			"uri":"textures/base_Roughness.jpg-base_Alpha.jpg.png"
		},
		{
			"mimeType":"image/png",
			"name":"base_Roughness",
			"uri":"textures/base_Roughness.png"
		}
	],
	"accessors":[
		{
			"bufferView":0,
			"componentType":5126,
			"count":5898,
			"max":[
				0.03920695185661316,
				0.160014808177948,
				0.0038629728369414806
			],
			"min":[
				-0.03922600671648979,
				1.4789297893003095e-05,
				-0.00741444481536746
			],
			"type":"VEC3"
		},
		{
			"bufferView":1,
			"componentType":5126,
			"count":5898,
			"type":"VEC3"
		},
		{
			"bufferView":2,
			"componentType":5126,
			"count":5898,
			"type":"VEC2"
		},
		{
			"bufferView":3,
			"componentType":5126,
			"count":5898,
			"type":"VEC2"
		},
		{
			"bufferView":4,
			"componentType":5123,
			"count":29178,
			"type":"SCALAR"
		},
		{
			"bufferView":5,
			"componentType":5126,
			"count":1088,
			"max":[
				0.0374741330742836,
				0.1585889458656311,
				-0.002425557002425194
			],
			"min":[
				-0.037474192678928375,
				0.0014406515983864665,
				-0.004118248820304871
			],
			"type":"VEC3"
		},
		{
			"bufferView":6,
			"componentType":5126,
			"count":1088,
			"type":"VEC3"
		},
		{
			"bufferView":7,
			"componentType":5126,
			"count":1088,
			"type":"VEC2"
		},
		{
			"bufferView":8,
			"componentType":5126,
			"count":1088,
			"type":"VEC2"
		},
		{
			"bufferView":9,
			"componentType":5123,
			"count":5472,
			"type":"SCALAR"
		},
		{
			"bufferView":10,
			"componentType":5126,
			"count":848,
			"max":[
				0.035518091171979904,
				0.15638837218284607,
				-0.0034708764869719744
			],
			"min":[
				0.012283844873309135,
				0.11515878140926361,
				-0.006067060865461826
			],
			"type":"VEC3"
		},
		{
			"bufferView":11,
			"componentType":5126,
			"count":848,
			"type":"VEC3"
		},
		{
			"bufferView":12,
			"componentType":5126,
			"count":848,
			"type":"VEC2"
		},
		{
			"bufferView":13,
			"componentType":5126,
			"count":848,
			"type":"VEC2"
		},
		{
			"bufferView":14,
			"componentType":5123,
			"count":4890,
			"type":"SCALAR"
		},
		{
			"bufferView":15,
			"componentType":5126,
			"count":1374,
			"max":[
				0.03917686268687248,
				0.160014808177948,
				0.003862970508635044
			],
			"min":[
				-0.039196718484163284,
				-1.3753873645327985e-05,
				-0.003851910587400198
			],
			"type":"VEC3"
		},
		{
			"bufferView":16,
			"componentType":5126,
			"count":1374,
			"type":"VEC3"
		},
		{
			"bufferView":17,
			"componentType":5126,
			"count":1374,
			"type":"VEC2"
		},
		{
			"bufferView":18,
			"componentType":5126,
			"count":1374,
			"type":"VEC2"
		},
		{
			"bufferView":19,
			"componentType":5123,
			"count":5670,
			"type":"SCALAR"
		},
		{
			"bufferView":20,
			"componentType":5126,
			"count":3172,
			"max":[
				0.03768383339047432,
				0.15879866480827332,
				0.004032094031572342
			],
			"min":[
				-0.0376838855445385,
				0.00020105387375224382,
				-0.008001972921192646
			],
			"type":"VEC3"
		},
		{
			"bufferView":21,
			"componentType":5126,
			"count":3172,
			"type":"VEC3"
		},
		{
			"bufferView":22,
			"componentType":5126,
			"count":3172,
			"type":"VEC2"
		},
		{
			"bufferView":23,
			"componentType":5126,
			"count":3172,
			"type":"VEC2"
		},
		{
			"bufferView":24,
			"componentType":5123,
			"count":16404,
			"type":"SCALAR"
		},
		{
			"bufferView":25,
			"componentType":5126,
			"count":1632,
			"max":[
				0.029285350814461708,
				0.15341563522815704,
				0.004010936710983515
			],
			"min":[
				-0.005304538179188967,
				0.0008422284736298025,
				-0.007726527750492096
			],
			"type":"VEC3"
		},
		{
			"bufferView":26,
			"componentType":5126,
			"count":1632,
			"type":"VEC3"
		},
		{
			"bufferView":27,
			"componentType":5126,
			"count":1632,
			"type":"VEC2"
		},
		{
			"bufferView":28,
			"componentType":5126,
			"count":1632,
			"type":"VEC2"
		},
		{
			"bufferView":29,
			"componentType":5123,
			"count":8694,
			"type":"SCALAR"
		},
		{
			"bufferView":30,
			"componentType":5126,
			"count":558,
			"max":[
				0.025526879355311394,
				0.15218326449394226,
				0.004010935313999653
			],
			"min":[
				0.006505496799945831,
				0.12545421719551086,
				-0.007584298960864544
			],
			"type":"VEC3"
		},
		{
			"bufferView":31,
			"componentType":5126,
			"count":558,
			"type":"VEC3"
		},
		{
			"bufferView":32,
			"componentType":5126,
			"count":558,
			"type":"VEC2"
		},
		{
			"bufferView":33,
			"componentType":5126,
			"count":558,
			"type":"VEC2"
		},
		{
			"bufferView":34,
			"componentType":5123,
			"count":2586,
			"type":"SCALAR"
		},
		{
			"bufferView":35,
			"componentType":5126,
			"count":69,
			"max":[
				0.03636964410543442,
				0.15748447179794312,
				0.004000639542937279
			],
			"min":[
				-0.036369696259498596,
				0.002545155817642808,
				0.004000562708824873
			],
			"type":"VEC3"
		},
		{
			"bufferView":36,
			"componentType":5126,
			"count":69,
			"type":"VEC3"
		},
		{
			"bufferView":37,
			"componentType":5126,
			"count":69,
			"type":"VEC2"
		},
		{
			"bufferView":38,
			"componentType":5126,
			"count":69,
			"type":"VEC2"
		},
		{
			"bufferView":39,
			"componentType":5123,
			"count":201,
			"type":"SCALAR"
		},
		{
			"bufferView":40,
			"componentType":5126,
			"count":778,
			"max":[
				0.03556039556860924,
				0.15667521953582764,
				0.004019593819975853
			],
			"min":[
				-0.035560447722673416,
				0.0033544080797582865,
				-0.007939736358821392
			],
			"type":"VEC3"
		},
		{
			"bufferView":41,
			"componentType":5126,
			"count":778,
			"type":"VEC3"
		},
		{
			"bufferView":42,
			"componentType":5126,
			"count":778,
			"type":"VEC2"
		},
		{
			"bufferView":43,
			"componentType":5126,
			"count":778,
			"type":"VEC2"
		},
		{
			"bufferView":44,
			"componentType":5123,
			"count":3129,
			"type":"SCALAR"
		},
		{
			"bufferView":45,
			"componentType":5126,
			"count":160,
			"max":[
				0.024799516424536705,
				0.00015757237270008773,
				0.0008564174640923738
			],
			"min":[
				-0.020112229511141777,
				0.0001575573842274025,
				-0.0008564174640923738
			],
			"type":"VEC3"
		},
		{
			"bufferView":46,
			"componentType":5126,
			"count":160,
			"type":"VEC3"
		},
		{
			"bufferView":47,
			"componentType":5126,
			"count":160,
			"type":"VEC2"
		},
		{
			"bufferView":48,
			"componentType":5126,
			"count":160,
			"type":"VEC2"
		},
		{
			"bufferView":49,
			"componentType":5123,
			"count":420,
			"type":"SCALAR"
		},
		{
			"bufferView":50,
			"componentType":5126,
			"count":760,
			"max":[
				0.008167780004441738,
				0.00035741928149946034,
				0.0009902091696858406
			],
			"min":[
				-0.008176770992577076,
				0.00011083482240792364,
				-0.0009902059100568295
			],
			"type":"VEC3"
		},
		{
			"bufferView":51,
			"componentType":5126,
			"count":760,
			"type":"VEC3"
		},
		{
			"bufferView":52,
			"componentType":5126,
			"count":760,
			"type":"VEC2"
		},
		{
			"bufferView":53,
			"componentType":5126,
			"count":760,
			"type":"VEC2"
		},
		{
			"bufferView":54,
			"componentType":5123,
			"count":4452,
			"type":"SCALAR"
		},
		{
			"bufferView":55,
			"componentType":5126,
			"count":263,
			"max":[
				0.007749294396489859,
				0.13682085275650024,
				-0.0024347715079784393
			],
			"min":[
				0.005423812661319971,
				0.13449537754058838,
				-0.002840309636667371
			],
			"type":"VEC3"
		},
		{
			"bufferView":56,
			"componentType":5126,
			"count":263,
			"type":"VEC3"
		},
		{
			"bufferView":57,
			"componentType":5126,
			"count":263,
			"type":"VEC2"
		},
		{
			"bufferView":58,
			"componentType":5126,
			"count":263,
			"type":"VEC2"
		},
		{
			"bufferView":59,
			"componentType":5123,
			"count":864,
			"type":"SCALAR"
		},
		{
			"bufferView":60,
			"componentType":5126,
			"count":734,
			"max":[
				0.00988991279155016,
				0.13896146416664124,
				-0.002244493691250682
			],
			"min":[
				0.0032831972930580378,
				0.1323547512292862,
				-0.003921953961253166
			],
			"type":"VEC3"
		},
		{
			"bufferView":61,
			"componentType":5126,
			"count":734,
			"type":"VEC3"
		},
		{
			"bufferView":62,
			"componentType":5126,
			"count":734,
			"type":"VEC2"
		},
		{
			"bufferView":63,
			"componentType":5126,
			"count":734,
			"type":"VEC2"
		},
		{
			"bufferView":64,
			"componentType":5123,
			"count":3594,
			"type":"SCALAR"
		},
		{
			"bufferView":65,
			"componentType":5126,
			"count":104,
			"max":[
				0.0039841230027377605,
				0.006589651107788086,
				0.0003999306936748326
			],
			"min":[
				-0.003984119743108749,
				0.0019539445638656616,
				-0.0003999338368885219
			],
			"type":"VEC3"
		},
		{
			"bufferView":66,
			"componentType":5126,
			"count":104,
			"type":"VEC3"
		},
		{
			"bufferView":67,
			"componentType":5126,
			"count":104,
			"type":"VEC2"
		},
		{
			"bufferView":68,
			"componentType":5126,
			"count":104,
			"type":"VEC2"
		},
		{
			"bufferView":69,
			"componentType":5123,
			"count":156,
			"type":"SCALAR"
		}
	],
	"bufferViews":[
		{
			"buffer":0,
			"byteLength":70776,
			"byteOffset":0,
			"target":34962
		},
		{
			"buffer":0,
			"byteLength":70776,
			"byteOffset":70776,
			"target":34962
		},
		{
			"buffer":0,
			"byteLength":47184,
			"byteOffset":141552,
			"target":34962
		},
		{
			"buffer":0,
			"byteLength":47184,
			"byteOffset":188736,
			"target":34962
		},
		{
			"buffer":0,
			"byteLength":58356,
			"byteOffset":235920,
			"target":34963
		},
		{
			"buffer":0,
			"byteLength":13056,
			"byteOffset":294276,
			"target":34962
		},
		{
			"buffer":0,
			"byteLength":13056,
			"byteOffset":307332,
			"target":34962
		},
		{
			"buffer":0,
			"byteLength":8704,
			"byteOffset":320388,
			"target":34962
		},
		{
			"buffer":0,
			"byteLength":8704,
			"byteOffset":329092,
			"target":34962
		},
		{
			"buffer":0,
			"byteLength":10944,
			"byteOffset":337796,
			"target":34963
		},
		{
			"buffer":0,
			"byteLength":10176,
			"byteOffset":348740,
			"target":34962
		},
		{
			"buffer":0,
			"byteLength":10176,
			"byteOffset":358916,
			"target":34962
		},
		{
			"buffer":0,
			"byteLength":6784,
			"byteOffset":369092,
			"target":34962
		},
		{
			"buffer":0,
			"byteLength":6784,
			"byteOffset":375876,
			"target":34962
		},
		{
			"buffer":0,
			"byteLength":9780,
			"byteOffset":382660,
			"target":34963
		},
		{
			"buffer":0,
			"byteLength":16488,
			"byteOffset":392440,
			"target":34962
		},
		{
			"buffer":0,
			"byteLength":16488,
			"byteOffset":408928,
			"target":34962
		},
		{
			"buffer":0,
			"byteLength":10992,
			"byteOffset":425416,
			"target":34962
		},
		{
			"buffer":0,
			"byteLength":10992,
			"byteOffset":436408,
			"target":34962
		},
		{
			"buffer":0,
			"byteLength":11340,
			"byteOffset":447400,
			"target":34963
		},
		{
			"buffer":0,
			"byteLength":38064,
			"byteOffset":458740,
			"target":34962
		},
		{
			"buffer":0,
			"byteLength":38064,
			"byteOffset":496804,
			"target":34962
		},
		{
			"buffer":0,
			"byteLength":25376,
			"byteOffset":534868,
			"target":34962
		},
		{
			"buffer":0,
			"byteLength":25376,
			"byteOffset":560244,
			"target":34962
		},
		{
			"buffer":0,
			"byteLength":32808,
			"byteOffset":585620,
			"target":34963
		},
		{
			"buffer":0,
			"byteLength":19584,
			"byteOffset":618428,
			"target":34962
		},
		{
			"buffer":0,
			"byteLength":19584,
			"byteOffset":638012,
			"target":34962
		},
		{
			"buffer":0,
			"byteLength":13056,
			"byteOffset":657596,
			"target":34962
		},
		{
			"buffer":0,
			"byteLength":13056,
			"byteOffset":670652,
			"target":34962
		},
		{
			"buffer":0,
			"byteLength":17388,
			"byteOffset":683708,
			"target":34963
		},
		{
			"buffer":0,
			"byteLength":6696,
			"byteOffset":701096,
			"target":34962
		},
		{
			"buffer":0,
			"byteLength":6696,
			"byteOffset":707792,
			"target":34962
		},
		{
			"buffer":0,
			"byteLength":4464,
			"byteOffset":714488,
			"target":34962
		},
		{
			"buffer":0,
			"byteLength":4464,
			"byteOffset":718952,
			"target":34962
		},
		{
			"buffer":0,
			"byteLength":5172,
			"byteOffset":723416,
			"target":34963
		},
		{
			"buffer":0,
			"byteLength":828,
			"byteOffset":728588,
			"target":34962
		},
		{
			"buffer":0,
			"byteLength":828,
			"byteOffset":729416,
			"target":34962
		},
		{
			"buffer":0,
			"byteLength":552,
			"byteOffset":730244,
			"target":34962
		},
		{
			"buffer":0,
			"byteLength":552,
			"byteOffset":730796,
			"target":34962
		},
		{
			"buffer":0,
			"byteLength":402,
			"byteOffset":731348,
			"target":34963
		},
		{
			"buffer":0,
			"byteLength":9336,
			"byteOffset":731752,
			"target":34962
		},
		{
			"buffer":0,
			"byteLength":9336,
			"byteOffset":741088,
			"target":34962
		},
		{
			"buffer":0,
			"byteLength":6224,
			"byteOffset":750424,
			"target":34962
		},
		{
			"buffer":0,
			"byteLength":6224,
			"byteOffset":756648,
			"target":34962
		},
		{
			"buffer":0,
			"byteLength":6258,
			"byteOffset":762872,
			"target":34963
		},
		{
			"buffer":0,
			"byteLength":1920,
			"byteOffset":769132,
			"target":34962
		},
		{
			"buffer":0,
			"byteLength":1920,
			"byteOffset":771052,
			"target":34962
		},
		{
			"buffer":0,
			"byteLength":1280,
			"byteOffset":772972,
			"target":34962
		},
		{
			"buffer":0,
			"byteLength":1280,
			"byteOffset":774252,
			"target":34962
		},
		{
			"buffer":0,
			"byteLength":840,
			"byteOffset":775532,
			"target":34963
		},
		{
			"buffer":0,
			"byteLength":9120,
			"byteOffset":776372,
			"target":34962
		},
		{
			"buffer":0,
			"byteLength":9120,
			"byteOffset":785492,
			"target":34962
		},
		{
			"buffer":0,
			"byteLength":6080,
			"byteOffset":794612,
			"target":34962
		},
		{
			"buffer":0,
			"byteLength":6080,
			"byteOffset":800692,
			"target":34962
		},
		{
			"buffer":0,
			"byteLength":8904,
			"byteOffset":806772,
			"target":34963
		},
		{
			"buffer":0,
			"byteLength":3156,
			"byteOffset":815676,
			"target":34962
		},
		{
			"buffer":0,
			"byteLength":3156,
			"byteOffset":818832,
			"target":34962
		},
		{
			"buffer":0,
			"byteLength":2104,
			"byteOffset":821988,
			"target":34962
		},
		{
			"buffer":0,
			"byteLength":2104,
			"byteOffset":824092,
			"target":34962
		},
		{
			"buffer":0,
			"byteLength":1728,
			"byteOffset":826196,
			"target":34963
		},
		{
			"buffer":0,
			"byteLength":8808,
			"byteOffset":827924,
			"target":34962
		},
		{
			"buffer":0,
			"byteLength":8808,
			"byteOffset":836732,
			"target":34962
		},
		{
			"buffer":0,
			"byteLength":5872,
			"byteOffset":845540,
			"target":34962
		},
		{
			"buffer":0,
			"byteLength":5872,
			"byteOffset":851412,
			"target":34962
		},
		{
			"buffer":0,
			"byteLength":7188,
			"byteOffset":857284,
			"target":34963
		},
		{
			"buffer":0,
			"byteLength":1248,
			"byteOffset":864472,
			"target":34962
		},
		{
			"buffer":0,
			"byteLength":1248,
			"byteOffset":865720,
			"target":34962
		},
		{
			"buffer":0,
			"byteLength":832,
			"byteOffset":866968,
			"target":34962
		},
		{
			"buffer":0,
			"byteLength":832,
			"byteOffset":867800,
			"target":34962
		},
		{
			"buffer":0,
			"byteLength":312,
			"byteOffset":868632,
			"target":34963
		}
	],
	"samplers":[
		{
			"magFilter":9729,
			"minFilter":9987
		}
	],
	"buffers":[
		{
			"byteLength":868944,
			"uri":"Untitled.bin"
		}
	]
}
